<mxfile host="65bd71144e">
    <diagram id="fdC51mvMveWf-8WROGPE" name="Page-1">
        <mxGraphModel dx="1007" dy="978" grid="1" gridSize="10" guides="1" tooltips="1" connect="1" arrows="1" fold="1" page="1" pageScale="1" pageWidth="850" pageHeight="1100" math="0" shadow="0">
            <root>
                <mxCell id="0"/>
                <mxCell id="1" parent="0"/>
                <mxCell id="15" value="" style="rounded=0;whiteSpace=wrap;html=1;fontFamily=Garamond;fontSize=13;" vertex="1" parent="1">
                    <mxGeometry x="260" y="10" width="320" height="370" as="geometry"/>
                </mxCell>
                <mxCell id="11" value="&lt;br style=&quot;font-size: 13px;&quot;&gt;Test &lt;br style=&quot;font-size: 13px;&quot;&gt;de GUI" style="triangle;whiteSpace=wrap;html=1;rotation=0;flipH=0;flipV=0;direction=north;fontFamily=Garamond;fontSize=13;sketch=1;curveFitting=1;jiggle=2;" vertex="1" parent="1">
                    <mxGeometry x="367.5" y="121.25" width="103.75" height="78.75" as="geometry"/>
                </mxCell>
                <mxCell id="12" value="Tests de aceptación&lt;br style=&quot;font-size: 13px;&quot;&gt;Tests de integración" style="shape=trapezoid;perimeter=trapezoidPerimeter;whiteSpace=wrap;html=1;fixedSize=1;size=31.25;fontFamily=Garamond;fontSize=13;sketch=1;curveFitting=1;jiggle=2;" vertex="1" parent="1">
                    <mxGeometry x="327.38" y="215.5" width="182.62" height="57.5" as="geometry"/>
                </mxCell>
                <mxCell id="13" value="Tests unitarios" style="shape=trapezoid;perimeter=trapezoidPerimeter;whiteSpace=wrap;html=1;fixedSize=1;size=31.25;fontFamily=Garamond;fontSize=13;sketch=1;curveFitting=1;jiggle=2;shadow=0;rounded=0;" vertex="1" parent="1">
                    <mxGeometry x="289.38" y="290" width="260" height="60" as="geometry"/>
                </mxCell>
                <mxCell id="14" value="Tests &lt;br style=&quot;font-size: 13px;&quot;&gt;manuales" style="ellipse;shape=cloud;whiteSpace=wrap;html=1;fontFamily=Garamond;fontSize=13;sketch=1;curveFitting=1;jiggle=2;" vertex="1" parent="1">
                    <mxGeometry x="358.69" y="60" width="120" height="80" as="geometry"/>
                </mxCell>
                <mxCell id="16" value="La pirámide de tests" style="text;html=1;align=center;verticalAlign=middle;resizable=0;points=[];autosize=1;strokeColor=none;fillColor=none;fontFamily=Garamond;fontSize=19;fontStyle=1" vertex="1" parent="1">
                    <mxGeometry x="323.69" y="15" width="190" height="40" as="geometry"/>
                </mxCell>
            </root>
        </mxGraphModel>
    </diagram>
</mxfile>